<?xml version="1.0" encoding="UTF-8"?>
<svg id="Layer_2" data-name="Layer 2" xmlns="http://www.w3.org/2000/svg" viewBox="0 0 769.02 450">
  <defs>
    <style>
      .cls-1 {
        fill: #EAEEE7;
      }
    </style>
  </defs>
  <g id="Layer_1-2" data-name="Layer 1">
    <g id="Layer_2-2" data-name="Layer 2">
      <g id="_Ñëîé_1" data-name="Ñëîé 1">
        <path class="cls-1" d="M768.3,450H.7c-.39,0-.7-.31-.7-.7h0V.7C0,.31.31,0,.7,0h0s767.6,0,767.6,0c.39,0,.7.31.7.7h0v448.6c0,.39-.31.7-.7.7h0ZM1.4,448.6h766.2V1.4H1.4v447.2Z"/>
        <path class="cls-1" d="M722.9,423.7H46.1c-.39,0-.7-.31-.7-.7h0V27.4c0-.39.31-.7.7-.7h676.8c.39,0,.7.31.7.7h0v395.6c0,.39-.31.7-.7.7h0ZM46.8,422.3h675.4V28.1H46.8v394.2Z"/>
        <path class="cls-1" d="M685.6,401.8H83.4c-.39,0-.7-.31-.7-.7h0V49.3c0-.39.31-.7.7-.7h602.2c.39,0,.7.31.7.7h0v351.8c0,.39-.31.7-.7.7ZM84.1,400.4h600.8V50H84.1v350.4Z"/>
        <path class="cls-1" d="M653.2,382.9H115.8c-.39,0-.7-.31-.7-.7h0V68.2c0-.39.31-.7.7-.7h537.4c.39,0,.7.31.7.7h0v314c0,.39-.31.7-.7.7ZM116.6,381.5h535.9V68.9H116.5l.1,312.6Z"/>
        <path class="cls-1" d="M624.5,366.2H144.5c-.39,0-.7-.31-.7-.7h0V84.9c0-.39.31-.7.7-.7h480c.39,0,.7.31.7.7h0v280.6c0,.39-.31.7-.7.7h0ZM145.1,364.8h478.8V85.6H145.2l-.1,279.2Z"/>
        <path class="cls-1" d="M598.1,350.7H170.9c-.39,0-.7-.31-.7-.7h0V100.4c0-.39.31-.7.7-.7h427.2c.39,0,.7.31.7.7h0v249.6c0,.39-.31.7-.7.7h0ZM171.6,349.3h425.8V101.1H171.6v248.2Z"/>
        <path class="cls-1" d="M539.9,316.7H229.1c-.39,0-.7-.31-.7-.7h0v-181.6c0-.39.31-.7.7-.7h310.8c.39,0,.7.31.7.7h0v181.6c0,.39-.31.7-.7.7h0ZM229.8,315.3h309.4v-180.2H229.8v180.2Z"/>
        <path class="cls-1" d="M556.6,326.4H212.4c-.39,0-.7-.31-.7-.7h0V124.7c0-.39.31-.7.7-.7h344.2c.39,0,.7.31.7.7h0v201.1c-.05.35-.35.6-.7.6ZM213.2,325h342.7V125.4H213.1l.1,199.6Z"/>
        <path class="cls-1" d="M575.9,337.7H193.1c-.39,0-.7-.31-.7-.7h0V113.4c0-.39.31-.7.7-.7h382.8c.39,0,.7.31.7.7h0v223.6c0,.39-.31.7-.7.7h0ZM193.8,336.3h381.4V114.1H193.8v222.2Z"/>
        <path class="cls-1" d="M525.3,308.2H243.7c-.39,0-.7-.31-.7-.7h0v-164.6c0-.39.31-.7.7-.7h281.6c.39,0,.7.31.7.7h0v164.6c0,.39-.31.7-.7.7h0ZM244.4,306.8h280.2v-163.2H244.4v163.2Z"/>
        <path class="cls-1" d="M514.1,301.6H254.9c-.39,0-.7-.31-.7-.7h0v-151.4c0-.39.31-.7.7-.7h259.2c.39,0,.7.31.7.7h0v151.4c0,.39-.31.7-.7.7h0ZM255.6,300.2h257.8v-150H255.6v150Z"/>
        <path class="cls-1" d="M504.6,296.1h-240.2c-.39,0-.7-.31-.7-.7h0v-140.3c0-.39.31-.7.7-.7h240.2c.39,0,.7.31.7.7h0v140.3c0,.39-.31.7-.7.7h0ZM265.2,294.7h238.7v-139h-238.8l.1,139Z"/>
        <path class="cls-1" d="M504.5,173.5c-.39-.03-.67-.37-.64-.75.02-.23.15-.43.34-.55l263.6-116c.36-.17.78,0,.95.35.17.36,0,.78-.35.95l-263.6,116h-.3Z"/>
        <path class="cls-1" d="M504.6,191c-.39.06-.74-.21-.8-.6-.06-.39.21-.74.6-.8l263.5-77.5c.39-.02.72.27.74.66.02.26-.12.51-.34.64l-263.5,77.6h-.2Z"/>
        <path class="cls-1" d="M504.7,208.5c-.39.03-.72-.26-.75-.65s.26-.72.65-.75l263.3-39.1c.38-.06.74.2.8.59,0,0,0,0,0,.01.06.38-.2.74-.59.8,0,0,0,0-.01,0l-263.3,39.1h-.1Z"/>
        <path class="cls-1" d="M504.7,226c-.39,0-.7-.32-.7-.7,0-.38.31-.7.7-.7l263.2-.6c.39,0,.7.32.7.7,0,.38-.31.7-.7.7l-263.2.6Z"/>
        <path class="cls-1" d="M767.8,281.4h-.1l-263-37.9c-.38-.05-.65-.4-.6-.79,0,0,0,0,0-.01.05-.38.4-.65.79-.6,0,0,0,0,.01,0l263,37.9c.39.03.68.36.65.75-.03.39-.36.68-.75.65h0Z"/>
        <path class="cls-1" d="M767.7,337.4h-.2l-262.8-76.4c-.39-.02-.68-.35-.66-.74.02-.39.35-.68.74-.66.11,0,.22.04.32.1l262.8,76.3c.39.06.66.41.6.8-.06.39-.41.66-.8.6Z"/>
        <path class="cls-1" d="M767.7,393.4h-.3l-262.8-114.9c-.36-.17-.52-.59-.35-.95.17-.36.59-.52.95-.35h0l262.7,114.9c.33.2.44.63.25.96-.12.2-.32.32-.55.34h.1Z"/>
        <path class="cls-1" d="M767.6,449.4h-.4l-262.6-153.5c-.31-.23-.37-.67-.13-.98.19-.25.54-.34.83-.22l262.6,153.4c.33.2.44.63.24.96-.13.22-.38.36-.64.34h.1Z"/>
        <path class="cls-1" d="M504.4,156c-.39.02-.72-.27-.74-.66-.02-.26.12-.51.34-.64L767.9.2c.31-.23.75-.18.98.13.23.31.18.75-.13.98-.05.04-.1.06-.15.09l-263.8,154.5-.4.1Z"/>
        <path class="cls-1" d="M477.8,155.4c-.39.02-.72-.27-.74-.66-.02-.26.12-.51.34-.64L682.6.3c.36-.15.77.02.91.38.1.24.06.52-.11.72l-205.2,153.9-.4.1Z"/>
        <path class="cls-1" d="M451.2,155.5l-.5-.2c-.28-.27-.28-.71-.01-.99,0,0,0,0,.01-.01L597.2.4c.28-.28.72-.28,1,0,.28.28.28.72,0,1l-146.5,153.8-.5.3Z"/>
        <path class="cls-1" d="M424.6,155.5h-.3c-.35-.16-.5-.58-.34-.93.01-.02.02-.05.04-.07L511.9.5c.15-.36.56-.52.92-.37.36.15.52.56.37.92-.02.05-.05.1-.09.15l-87.9,153.9c-.11.23-.34.39-.6.4Z"/>
        <path class="cls-1" d="M398,155.5h-.1c-.38-.05-.65-.4-.6-.79,0,0,0,0,0-.01L426.6.8c.06-.39.41-.66.8-.6s.66.41.6.8h0l-29.4,153.9c-.04.31-.29.56-.6.6Z"/>
        <path class="cls-1" d="M371.3,155.5c-.35,0-.65-.25-.7-.6L341.3,1.1c-.08-.39.16-.77.55-.85.39-.08.77.16.85.55l29.3,153.9c.06.38-.2.74-.59.8,0,0,0,0-.01,0h-.1Z"/>
        <path class="cls-1" d="M344.7,155.6c-.26-.01-.49-.17-.6-.4L256.2,1.3c-.23-.31-.18-.75.13-.98.31-.23.75-.18.98.13.04.05.06.1.09.15l87.9,153.9c.2.33.1.76-.23.96-.02.01-.05.03-.07.04l-.3.1Z"/>
        <path class="cls-1" d="M318.1,155.6l-.5-.2L171,1.5c-.28-.28-.28-.72,0-1s.72-.28,1,0l146.6,153.9c.28.27.28.71.01.99,0,0,0,0-.01.01l-.5.2Z"/>
        <path class="cls-1" d="M291.5,155.6h-.4L85.9,1.6c-.36-.15-.53-.56-.38-.91.15-.36.56-.53.91-.38.1.04.2.11.27.2l205.2,153.9c.33.2.44.63.24.96-.13.22-.38.36-.64.34v-.1Z"/>
        <path class="cls-1" d="M264.9,156.3h-.4L.7,1.6c-.31-.23-.37-.67-.13-.98.19-.25.54-.34.83-.22l263.8,154.6c.33.2.44.63.24.96-.13.22-.38.36-.64.34h.1Z"/>
        <path class="cls-1" d="M684.1,449.9h-.4l-206.1-153.9c-.25-.29-.21-.74.08-.99.2-.17.48-.21.72-.11l206.1,153.8c.33.2.44.63.24.96-.13.22-.38.36-.64.34v-.1Z"/>
        <path class="cls-1" d="M598.9,449.9l-.5-.2-147.4-153.7c-.28-.28-.28-.72,0-1s.72-.28,1,0l147.4,153.7c.28.27.28.71.01.99,0,0,0,0-.01.01l-.5.2Z"/>
        <path class="cls-1" d="M513.6,449.9c-.24,0-.46-.1-.6-.3l-88.6-153.9c-.15-.36.01-.77.37-.92.29-.13.64-.04.83.22l88.7,153.8c.2.33.1.76-.23.96-.02.01-.05.03-.07.04l-.4.1Z"/>
        <path class="cls-1" d="M428.4,449.8c-.35,0-.65-.25-.7-.6l-30.1-154c-.06-.38.2-.74.59-.8,0,0,0,0,.01,0,.38-.06.74.2.8.59,0,0,0,0,0,.01l30.1,154c.06.38-.2.74-.59.8,0,0,0,0-.01,0h-.1Z"/>
        <path class="cls-1" d="M343.2,449.8h-.2c-.38-.05-.65-.4-.6-.79,0,0,0,0,0-.01l28.3-153.5c.05-.38.4-.65.79-.6,0,0,0,0,.01,0,.38.05.65.4.6.79,0,0,0,0,0,.01l-28.2,153.5c-.05.35-.35.6-.7.6Z"/>
        <path class="cls-1" d="M257.9,449.8h-.3c-.35-.16-.5-.58-.34-.93.01-.02.02-.05.04-.07l86.7-153.7c.15-.36.56-.52.92-.37.36.15.52.56.37.92-.02.05-.05.1-.09.15l-86.7,153.6c-.11.23-.34.39-.6.4Z"/>
        <path class="cls-1" d="M172.7,449.8l-.5-.2c-.28-.27-.28-.71-.01-.99,0,0,0,0,.01-.01l145.6-153.6c.28-.28.72-.28,1,0s.28.72,0,1l-145.6,153.5-.5.3Z"/>
        <path class="cls-1" d="M87.5,449.7c-.39.02-.72-.27-.74-.66-.02-.26.12-.51.34-.64l204.1-153.4c.25-.29.69-.33.99-.08.29.25.33.69.08.99-.07.09-.16.15-.27.2l-204.1,153.5-.4.1Z"/>
        <path class="cls-1" d="M264.3,173.8h-.3L.9,57.7c-.36-.17-.52-.59-.35-.95.17-.36.59-.52.95-.35l263.2,116c.33.2.44.63.25.96-.12.2-.32.32-.55.34l-.1.1Z"/>
        <path class="cls-1" d="M264.3,191.3h-.2L1,113.7c-.33-.2-.44-.63-.24-.96.13-.22.38-.36.64-.34l263,77.5c.39.06.66.41.6.8-.06.39-.41.66-.8.6h.1Z"/>
        <path class="cls-1" d="M264.2,208.8h-.1L1.2,169.7c-.39-.06-.66-.41-.6-.8.06-.39.41-.66.8-.6l262.9,39.1c.39.03.68.36.65.75s-.36.68-.75.65h0Z"/>
        <path class="cls-1" d="M264.1,226.3l-262.7-.6c-.39,0-.7-.32-.7-.7,0-.38.31-.7.7-.7l262.7.6c.39,0,.7.32.7.7,0,.38-.31.7-.7.7Z"/>
        <path class="cls-1" d="M1.5,281.7c-.39.03-.72-.26-.75-.65s.26-.72.65-.75l262.6-37.9c.39-.06.74.21.8.6.06.39-.21.74-.6.8h0L1.6,281.7h-.1Z"/>
        <path class="cls-1" d="M1.6,337.6c-.39.06-.74-.21-.8-.6-.06-.39.21-.74.6-.8h0l262.4-76.4c.33-.2.76-.09.96.24.2.33.09.76-.24.96-.1.06-.21.09-.32.1L1.8,337.6h-.2Z"/>
        <path class="cls-1" d="M1.6,393.6c-.39-.03-.67-.37-.64-.75.02-.23.15-.43.34-.55l262.3-114.9c.36-.17.78,0,.95.35.17.36,0,.78-.35.95L1.9,393.6h-.3Z"/>
        <path class="cls-1" d="M1.7,449.6c-.39.02-.72-.27-.74-.66-.02-.26.12-.51.34-.64l262.7-153.3c.31-.23.75-.18.98.13.23.31.18.75-.13.98-.05.04-.1.06-.15.09L2.1,449.5l-.4.1Z"/>
        <path class="cls-1" d="M291.3,295.5c-.39,0-.7-.31-.7-.7h0v-139.9c0-.39.31-.7.7-.7.39,0,.7.31.7.7h0v139.9c0,.39-.31.7-.7.7Z"/>
        <path class="cls-1" d="M318,295.6c-.39,0-.7-.31-.7-.7h0v-139.9c0-.39.31-.7.7-.7.39,0,.7.31.7.7h0v139.9c0,.39-.31.7-.7.7Z"/>
        <path class="cls-1" d="M344.7,295.7c-.39,0-.7-.31-.7-.7h0v-139.9c0-.39.32-.7.7-.7.38,0,.7.31.7.7v139.9c0,.39-.31.7-.7.7Z"/>
        <path class="cls-1" d="M371.4,295.8c-.39,0-.7-.31-.7-.7h0v-139.9c0-.39.31-.7.7-.7.39,0,.7.31.7.7h0v139.9c0,.39-.31.7-.7.7Z"/>
        <path class="cls-1" d="M398.1,295.9c-.39,0-.7-.31-.7-.7h0v-139.9c0-.39.32-.7.7-.7.38,0,.7.31.7.7v139.9c0,.39-.31.7-.7.7Z"/>
        <path class="cls-1" d="M424.8,296c-.39,0-.7-.31-.7-.7h0v-139.9c0-.39.31-.7.7-.7.39,0,.7.31.7.7h0v139.9c0,.39-.31.7-.7.7Z"/>
        <path class="cls-1" d="M451.5,296.1c-.39,0-.7-.31-.7-.7h0v-139.9c0-.39.31-.7.7-.7.39,0,.7.31.7.7h0v139.9c0,.39-.31.7-.7.7Z"/>
        <path class="cls-1" d="M478.3,296.2c-.39,0-.7-.31-.7-.7h0v-139.9c0-.39.31-.7.7-.7.39,0,.7.31.7.7h0v139.9c0,.39-.31.7-.7.7Z"/>
        <path class="cls-1" d="M504.2,173.6h-240c-.39,0-.7-.31-.7-.7s.31-.7.7-.7h240c.39,0,.7.31.7.7s-.31.7-.7.7h0Z"/>
        <path class="cls-1" d="M504.3,191.1h-240.1c-.39,0-.7-.31-.7-.7s.31-.7.7-.7h240.1c.39,0,.7.32.7.7,0,.38-.31.7-.7.7Z"/>
        <path class="cls-1" d="M504.5,208.7h-240.3c-.39,0-.7-.31-.7-.7s.31-.7.7-.7h240.3c.39,0,.7.32.7.7,0,.38-.31.7-.7.7Z"/>
        <path class="cls-1" d="M504.6,226.2h-240.4c-.39,0-.7-.31-.7-.7s.31-.7.7-.7h240.4c.39,0,.7.32.7.7,0,.38-.31.7-.7.7Z"/>
        <path class="cls-1" d="M504.8,243.7h-240.6c-.39,0-.7-.32-.7-.7,0-.38.31-.7.7-.7h240.6c.39,0,.7.31.7.7s-.31.7-.7.7h0Z"/>
        <path class="cls-1" d="M504.9,261.3h-240.7c-.39,0-.7-.32-.7-.7,0-.38.31-.7.7-.7h240.7c.39,0,.7.31.7.7s-.31.7-.7.7h0Z"/>
        <path class="cls-1" d="M505.1,278.8h-241c-.39,0-.7-.32-.7-.7,0-.38.31-.7.7-.7h241c.39,0,.7.31.7.7s-.31.7-.7.7h0Z"/>
      </g>
    </g>
  </g>
</svg>