<?xml version="1.0" encoding="UTF-8"?>
<svg id="Layer_2" data-name="Layer 2" xmlns="http://www.w3.org/2000/svg" viewBox="0 0 384 383.18">
  <g id="Layer_1-2" data-name="Layer 1">
    <path d="M284,383.12l-227,.06c-29.6-3.49-53.54-27.33-57-56.89L.06,99.63c4.33-32.95,31.19-57.19,64.52-57.17l84.65.05c12.18,0,21.4,9.74,21.4,21.38s-9.29,21.18-21.41,21.19l-85.46.06c-11.66,0-21.08,9.44-21.08,21.15l-.02,212.41c0,11.94,8.88,21.86,21.2,21.87l212.76.04c12.64,0,22.04-9.33,22.04-21.88v-84.5c0-12.1,9.78-21.37,21.23-21.37,11.68,0,21.42,9.2,21.42,21.36l.05,84.49c.02,33.47-24.56,60.21-57.37,64.39Z"/>
    <path d="M384,17.14v135.49c-2.17,10.89-12.42,18.59-23.21,17.52-11.55-1.14-19.5-10.41-19.51-22.02l-.04-75.36-177.2,176.77c-8.52,8.5-22.16,7.42-29.95-.58s-8.55-21.16-.19-29.51L311.03,42.59l-77.03-.17c-11.56-.03-20.28-9.64-20.63-20.67-.32-10.08,7.71-21.59,19.28-21.6L363.69,0c10.4-.01,17.88,8.22,20.31,17.14Z"/>
  </g>
</svg>