<?xml version="1.0" encoding="UTF-8"?>
<svg id="Layer_2" data-name="Layer 2" xmlns="http://www.w3.org/2000/svg" viewBox="0 0 3824.2 1170.56">
  <defs>
    <style>
      .cls-1 {
        fill: #ffd630;
      }

      .cls-2 {
        fill: #2ca449;
      }

      .cls-3 {
        fill: #a2a2a2;
      }
    </style>
  </defs>
  <g id="Layer_1-2" data-name="Layer 1">
    <g>
      <rect class="cls-1" width="3824.2" height="1170.56"/>
      <g>
        <polygon class="cls-2" points="1996.01 512.32 1931.27 310.57 1865.89 511.88 1751.81 512.22 1631.26 114.13 1772.03 113.94 1823.54 300.02 1885.34 113.1 1982.74 113.01 2045.37 304.28 2096.25 114.03 2231.36 114.13 2108.22 511.86 1996.01 512.32"/>
        <path class="cls-2" d="M1134.91,831.78c50.98,14,82.4,48.62,82.46,100.78.05,37.51-19.07,69.78-51.8,88.3-25.85,13.86-54.15,21.55-84.62,21.6l-219.13.36v-397.21s220.48.53,220.48.53c22.54.05,42.98,6.98,62.79,15.54,28.61,14.76,46.48,41.13,49.2,73.28,6.28,45.31-17.93,78.07-59.39,96.81ZM1068.34,785.08c6.78-12.57,5.23-27.31-3.04-37.9-7.59-6.9-17.16-9.43-27.35-9.54l-53.4-.54v63.3s53.34-.61,53.34-.61c11.83-.14,22.95-4.62,30.45-14.7ZM1087.82,939.95c8.2-10.17,8.9-24.48,3.04-35.22-8.82-11.84-22.51-15-36.8-15.12l-69.56-.6.24,62.4,70.8-.46c11.77-.81,22.96-2.56,32.27-11.01Z"/>
        <path class="cls-2" d="M1538.41,494.47c-67.46,34.29-161.83,34.09-228.56-2.7-87.21-48.09-120.88-148.62-93.86-242.62,16.63-57.86,57.88-103.67,114.51-125.61s121.06-23.41,178.96-3.65c69.76,23.82,119.29,82.2,131.35,154.55,14.87,89.17-20.12,178.21-102.4,220.03ZM1513.36,349.51c8.02-24.6,7.71-49.94-.25-73.67-11.19-33.36-39.93-55.19-74.8-59.2-25.45-2.92-50.63,1.82-70.73,17.37-24.44,18.91-35.5,47.55-35.4,78.07.19,58.11,35.58,97.36,93.34,97.98,39.7.43,75.02-21.24,87.84-60.56Z"/>
        <path class="cls-3" d="M486.64,1042.69l-134.7.21-71.25-137.14-23.24-.1v137.16s-122.66.06-122.66.06l-.07-397.28,185.81.51c25.18.07,48.1,7.51,70.75,16.75,25.68,12.37,46.46,30.98,58.84,56.69,25.87,61.39,9.67,136.94-52.45,166.67l88.96,156.48ZM329.59,799.06c11.1-15.2,10.33-35.33-1.51-48.99-8.39-6.39-18.14-9.9-28.88-9.91l-41.74-.05.02,71.26,42.77-.46c10.77-.11,20.72-4.38,29.35-11.85Z"/>
        <path class="cls-3" d="M483.17,511.92l-134.77.14-71.26-137.15-23.35-.03v137.16s-122.66.06-122.66.06l-.07-398.1,180.71.44c24.82.06,47.4,6.02,69.78,14.64,25.45,10.63,46.13,27.73,60.67,51.15,14.21,26.58,18.67,55.96,14.14,85.94-4.5,38.55-26.94,70.78-62.41,88.94l89.2,156.82ZM333.16,240.42c-3.46-37.83-43.54-31.88-79.37-32.12v72.18c17.07.08,33.41.91,50.07-1.96,18.76-3.23,32.03-18.28,29.3-38.1Z"/>
        <path class="cls-2" d="M2963.45,511.24l-134.09.71-71.47-137.01-23.36-.25-.07,137.06h-122.63s-.04-397.82-.04-397.82l181.55.63c31.29.11,60.07,8.69,86.55,23.25,31.05,18.02,51.4,47.13,56.89,82.57,2.9,17.9,2.71,35.01-.78,52.88-6.21,35.28-27.59,65.04-61.19,81.7l88.64,156.28ZM2813.99,243.42c.79-18.01-11.79-30.53-28.3-33.36l-51.26-1.61v71.86c37.04.8,80.12,4.13,79.56-36.89Z"/>
        <path class="cls-2" d="M3020,1042.34l-134.4.47-71.32-136.72-23.11-.42-.08,137.11-122.51.05v-397.26s188.04.8,188.04.8c29.22.12,55.98,9.78,80.84,23.19,24.32,14.76,42.13,35.59,51.14,62.51,17.87,59.98,1.05,125-57.32,154.37l88.73,155.9ZM2864.35,797.32c9.45-14.4,8.79-32.6-1.44-45.62-7.84-7.39-18.02-11.5-29.02-11.53l-42.73-.13.08,71.35,41.85-.44c11.72-.12,22.73-4.58,31.26-13.62Z"/>
        <polygon class="cls-2" points="1544.51 888.5 1375.95 888.83 1376.1 938.56 1567.87 938.52 1567.87 1042.8 1251.94 1042.74 1251.94 645.7 1563.23 645.66 1563.21 749.12 1376.13 749.1 1376.11 791.2 1544.47 791.28 1544.51 888.5"/>
        <polygon class="cls-3" points="797.8 888.94 629.26 889.11 629.27 938.48 822.54 938.49 822.54 1042.84 506.54 1042.77 506.54 645.68 817.81 645.64 817.95 749 629.28 749.17 629.28 791.22 797.74 791.19 797.8 888.94"/>
        <polygon class="cls-3" points="794.13 357.35 625.86 357.44 625.59 406.87 818.68 406.84 818.92 512.07 502.88 512 502.88 114.07 813.2 114 813.45 217.37 625.62 217.38 625.62 260.45 794.06 260.42 794.13 357.35"/>
        <polygon class="cls-2" points="2604.46 888.69 2436.2 888.77 2436.19 938.53 2629.09 938.54 2629.18 1042.83 2313.31 1042.77 2313.33 645.69 2623.63 645.67 2623.63 749.13 2436.15 749.1 2436.13 791.21 2604.43 791.25 2604.46 888.69"/>
        <polygon class="cls-3" points="3274.82 357.41 3106.4 357.44 3106.48 406.87 3299.42 406.88 3299.47 512.08 2983.6 512.02 2983.6 114.04 3294.75 114 3295.01 217.33 3106.3 217.46 3106.53 260.45 3274.83 260.46 3274.82 357.41"/>
        <polygon class="cls-2" points="2547.73 357.4 2379.27 357.44 2379.37 406.87 2572.35 406.87 2572.34 511.75 2256.53 511.72 2256.52 114.05 2566.89 113.98 2566.91 217.37 2379.42 217.32 2379.16 260.35 2547.53 260.42 2547.73 357.4"/>
        <path class="cls-3" d="M3403.78,645.6l-.02,251.94c-4.83,70-45.13,123.37-111.97,143.3-51.69,15.41-107.66,14.05-157.67-5.37-56.9-22.09-91.8-71.73-97.1-132.62l-.38-257.24,122.78.03.1,239.05c1.65,34.97,28.82,57.28,62.65,56.81,32.49-.45,57.59-21.57,60.71-55.08l.12-240.78,120.78-.04Z"/>
        <path class="cls-3" d="M3702.41,358.59c-3.31,106.39-80.79,160.87-181.74,161.04-98.47.17-174.68-47.12-185.31-149.19l-.2-256.47,122.73.09.31,242.97c4.4,33.39,28.65,52.74,60.65,53.13,32.76.39,59.21-20.27,62.54-54.55l.12-241.55,120.89-.07v244.61Z"/>
        <path class="cls-2" d="M1123.58,357.21c-25.17,12.97-51.34,17.9-79.04,18.94l-63.66.13-.03,135.48-122.68-.02V114s186.15.42,186.15.42c26.75.06,50.88,6.83,74.7,17.06,26.95,13.64,48.97,34.53,59.36,63.32,21.12,58.46,4.66,132.52-54.81,162.4ZM1061.37,245.26c-.65-40.51-43.29-34.1-80.51-34.11v70.18c38.27.29,81.34,6.06,80.51-36.07Z"/>
        <polygon class="cls-2" points="2174.1 1042.54 2051.36 1042.89 2051.44 753.63 1943.35 753.6 1943.42 645.64 2282.11 645.65 2282.12 753.55 2174.05 753.65 2174.1 1042.54"/>
        <polygon class="cls-2" points="1820.53 1042.55 1697.91 1042.88 1697.99 753.64 1589.89 753.6 1589.96 645.67 1928.99 645.68 1929.17 753.57 1820.53 753.64 1820.53 1042.55"/>
      </g>
    </g>
  </g>
</svg>